<svg width="25" height="25" viewBox="0 0 25 25" fill="none" xmlns="http://www.w3.org/2000/svg">
<path d="M17.335 6.66992C19.335 8.05992 20.715 10.2699 20.995 12.8199" stroke="#E7E8EA" stroke-width="1.5" stroke-linecap="round" stroke-linejoin="round"/>
<path d="M3.86499 12.8702C4.12499 10.3302 5.48499 8.12021 7.46499 6.72021" stroke="#E7E8EA" stroke-width="1.5" stroke-linecap="round" stroke-linejoin="round"/>
<path d="M8.56494 21.4399C9.72494 22.0299 11.0449 22.3599 12.4349 22.3599C13.7749 22.3599 15.0349 22.0599 16.1649 21.5099" stroke="#E7E8EA" stroke-width="1.5" stroke-linecap="round" stroke-linejoin="round"/>
<path d="M12.435 8.20014C13.9704 8.20014 15.215 6.95549 15.215 5.42014C15.215 3.88479 13.9704 2.64014 12.435 2.64014C10.8997 2.64014 9.65503 3.88479 9.65503 5.42014C9.65503 6.95549 10.8997 8.20014 12.435 8.20014Z" stroke="#E7E8EA" stroke-width="1.5" stroke-linecap="round" stroke-linejoin="round"/>
<path d="M5.20505 20.4199C6.7404 20.4199 7.98505 19.1752 7.98505 17.6399C7.98505 16.1045 6.7404 14.8599 5.20505 14.8599C3.6697 14.8599 2.42505 16.1045 2.42505 17.6399C2.42505 19.1752 3.6697 20.4199 5.20505 20.4199Z" stroke="#E7E8EA" stroke-width="1.5" stroke-linecap="round" stroke-linejoin="round"/>
<path d="M19.545 20.4199C21.0804 20.4199 22.325 19.1752 22.325 17.6399C22.325 16.1045 21.0804 14.8599 19.545 14.8599C18.0097 14.8599 16.765 16.1045 16.765 17.6399C16.765 19.1752 18.0097 20.4199 19.545 20.4199Z" stroke="#E7E8EA" stroke-width="1.5" stroke-linecap="round" stroke-linejoin="round"/>
</svg>
