<svg width="35" height="36" viewBox="0 0 35 36" fill="none" xmlns="http://www.w3.org/2000/svg">
<rect y="0.975098" width="35" height="35" rx="17.5" fill="white"/>
<path d="M23.5752 14.5484C23.494 14.4566 23.3631 14.4335 23.2557 14.4901C23.1889 14.5253 23.0633 14.5715 22.9142 14.6171C23.1023 14.3599 23.2535 14.0719 23.3203 13.813C23.3492 13.7014 23.307 13.5838 23.2151 13.5173C23.1232 13.4514 23.0008 13.4514 22.9089 13.5173C22.7641 13.6212 22.0652 13.9334 21.6233 14.0345C20.6246 13.1348 19.4624 13.0413 18.2542 13.7668C17.2721 14.3566 17.0584 15.5558 17.1001 16.2868C14.8521 16.0642 13.4548 14.843 12.6682 13.8322C12.6132 13.7613 12.5245 13.724 12.4412 13.7295C12.3535 13.736 12.2744 13.7861 12.2296 13.8636C11.8577 14.5093 11.7545 15.2233 11.9325 15.9284C12.0297 16.3132 12.1996 16.6523 12.3968 16.9271C12.3022 16.8793 12.2109 16.8194 12.1248 16.7479C12.0457 16.6808 11.9351 16.6682 11.8416 16.7127C11.7486 16.7583 11.6893 16.8551 11.6893 16.9611C11.6893 18.1719 12.4257 18.9799 13.1134 19.402C13.0022 19.3882 12.8863 19.3629 12.7692 19.3261C12.6688 19.2948 12.5598 19.3261 12.4903 19.4075C12.4208 19.4882 12.4043 19.6037 12.4476 19.702C12.8339 20.5809 13.5659 21.1854 14.4716 21.4047C13.6808 21.8823 12.6223 22.1165 11.653 22.0016C11.5274 21.9835 11.4077 22.0654 11.3682 22.1896C11.3287 22.3138 11.3805 22.4501 11.4911 22.5138C12.9616 23.363 14.291 23.6664 15.4399 23.6664C17.1118 23.6664 18.4023 23.0244 19.1877 22.4875C21.3053 21.042 22.6252 18.4467 22.4413 16.1246C22.7807 15.8669 23.2883 15.3909 23.603 14.8792C23.6682 14.7759 23.6564 14.6396 23.5752 14.5484Z" fill="#9B0000"/>
</svg>
