<svg width="35" height="36" viewBox="0 0 35 36" fill="none" xmlns="http://www.w3.org/2000/svg">
<rect y="0.75" width="35" height="35" rx="17.5" fill="#E7E8EA"/>
<path d="M17.5 28.25C23.0228 28.25 27.5 23.7728 27.5 18.25C27.5 12.7272 23.0228 8.25 17.5 8.25C11.9772 8.25 7.5 12.7272 7.5 18.25C7.5 19.6289 7.77907 20.9426 8.28382 22.1377C8.56278 22.7981 8.70226 23.1284 8.71953 23.378C8.7368 23.6276 8.66334 23.9021 8.51642 24.4512L7.5 28.25L11.2988 27.2336C11.8479 27.0867 12.1224 27.0132 12.372 27.0305C12.6216 27.0477 12.9519 27.1872 13.6123 27.4662C14.8074 27.9709 16.1211 28.25 17.5 28.25Z" stroke="#141B34" stroke-width="1.5" stroke-linejoin="round"/>
<path d="M14.0882 18.6273L14.9591 17.5456C15.3262 17.0897 15.7799 16.6653 15.8155 16.0583C15.8244 15.9049 15.7166 15.2166 15.5008 13.8399C15.416 13.2988 14.9109 13.25 14.4733 13.25C13.9031 13.25 13.6181 13.25 13.335 13.3793C12.9771 13.5428 12.6098 14.0023 12.5292 14.3873C12.4654 14.692 12.5128 14.9019 12.6076 15.3217C13.0102 17.1048 13.9548 18.8658 15.4195 20.3305C16.8842 21.7952 18.6452 22.7398 20.4283 23.1424C20.8481 23.2372 21.058 23.2846 21.3627 23.2208C21.7477 23.1402 22.2072 22.7729 22.3707 22.415C22.5 22.1319 22.5 21.8469 22.5 21.2767C22.5 20.8391 22.4512 20.334 21.9101 20.2492C20.5334 20.0334 19.8451 19.9256 19.6917 19.9345C19.0847 19.9701 18.6603 20.4238 18.2044 20.7909L17.1227 21.6618" stroke="#141B34" stroke-width="1.5"/>
</svg>
